<?xml version="1.0" encoding="UTF-8"?>
<svg width="480px" height="480px" viewBox="0 0 480 480" version="1.1" xmlns="http://www.w3.org/2000/svg" xmlns:xlink="http://www.w3.org/1999/xlink">
    <title>Shape</title>
    <g id="Page-1" stroke="none" stroke-width="1" fill="none" fill-rule="evenodd">
        <g id="Group" transform="translate(240.000000, 240.000000) rotate(-180.000000) translate(-240.000000, -240.000000) translate(0.000000, 0.000000)" fill="#BABABA" fill-rule="nonzero">
            <path d="M240,0 C107.45166,0 0,107.45166 0,240 C0,372.54834 107.45166,480 240,480 C372.54834,480 480,372.54834 480,240 C479.850104,107.513799 372.486201,0.149896348 240,0 Z M283.312,324.688 C287.471305,328.705192 289.139402,334.654046 287.675155,340.248117 C286.210907,345.842188 281.842188,350.210907 276.248117,351.675155 C270.654046,353.139402 264.705192,351.471305 260.688,347.312 L164.688,251.312 C158.441889,245.064002 158.441889,234.935998 164.688,228.688 L260.688,132.688 C266.966062,126.624445 276.945356,126.711162 283.117097,132.882903 C289.288838,139.054644 289.375555,149.033938 283.312,155.312 L198.624,240 L283.312,324.688 Z" id="Shape"></path>
        </g>
    </g>
</svg>