<?xml version="1.0" encoding="UTF-8"?>
<svg width="519px" height="525px" viewBox="0 0 519 525" version="1.1" xmlns="http://www.w3.org/2000/svg" xmlns:xlink="http://www.w3.org/1999/xlink">
    <title>Combined Shape</title>
    <g id="Page-1" stroke="none" stroke-width="1" fill="none" fill-rule="evenodd">
        <path d="M416.910125,307.000415 L518.243043,307.003382 C497.105038,430.782465 389.305361,525 259.5,525 C129.694639,525 21.894962,430.782465 0.75695652,307.003382 L100.089875,307.000415 C119.498168,376.231417 183.070265,427 258.5,427 C333.929735,427 397.501832,376.231417 416.910125,307.000415 Z M259,184 C302.630495,184 338,219.369505 338,263 C338,306.630495 302.630495,342 259,342 C215.369505,342 180,306.630495 180,263 C180,219.369505 215.369505,184 259,184 Z M259.5,0 C388.956121,0 496.524811,93.7112345 518.070548,216.998182 L416.626141,216.998869 C396.888153,148.279902 333.565827,98 258.5,98 C183.434173,98 120.111847,148.279902 100.373859,216.998869 L0.92945192,216.998182 C22.4751889,93.7112345 130.043879,0 259.5,0 Z" id="Combined-Shape" fill="#FF4457"></path>
    </g>
</svg>