<?xml version="1.0" encoding="UTF-8"?>
<svg width="525px" height="525px" viewBox="0 0 525 525" version="1.1" xmlns="http://www.w3.org/2000/svg" xmlns:xlink="http://www.w3.org/1999/xlink">
    <title>Combined Shape</title>
    <g id="Page-1" stroke="none" stroke-width="1" fill="none" fill-rule="evenodd" fill-opacity="0.0358118444">
        <path d="M262.5,0 C407.474747,0 525,117.525253 525,262.5 C525,407.474747 407.474747,525 262.5,525 C117.525253,525 0,407.474747 0,262.5 C0,117.525253 117.525253,0 262.5,0 Z M261.5,98 C170.649159,98 97,171.649159 97,262.5 C97,353.350841 170.649159,427 261.5,427 C352.350841,427 426,353.350841 426,262.5 C426,171.649159 352.350841,98 261.5,98 Z M262,184 C305.630495,184 341,219.369505 341,263 C341,306.630495 305.630495,342 262,342 C218.369505,342 183,306.630495 183,263 C183,219.369505 218.369505,184 262,184 Z" id="Combined-Shape" fill="#000000"></path>
    </g>
</svg>