<?xml version="1.0" encoding="UTF-8"?>
<svg width="512px" height="470px" viewBox="0 0 512 470" version="1.1" xmlns="http://www.w3.org/2000/svg" xmlns:xlink="http://www.w3.org/1999/xlink">
    <title>Path</title>
    <g id="Page-1" stroke="none" stroke-width="1" fill="none" fill-rule="evenodd">
        <g id="Group" fill="#FE4457" fill-rule="nonzero">
            <path d="M448,245.334 C448,220.372 438.915,191.054 430.245,168.696 C487.435,153.963 512,52.845 512,10.667 C512,4.771 507.229,0 501.333,0 C441.196,0 360.151,39.081 344.3,81.564 C321.71,72.925 290.186,64 256,64 C221.814,64 190.29,72.924 167.699,81.564 C151.849,39.081 70.803,0 10.666,0 C4.771,0 0,4.771 0,10.667 C0,52.845 24.565,153.963 81.755,168.696 C73.085,191.054 64,220.371 64,245.334 C64,264.053 60.167,270.751 55.292,279.23 C49.375,289.552 42.667,301.271 42.667,330.667 C42.667,387.344 118.646,469.334 256,469.334 C393.354,469.334 469.333,387.344 469.333,330.667 C469.333,301.271 462.625,289.552 456.708,279.229 C451.833,270.75 448,264.052 448,245.334 Z" id="Path"></path>
        </g>
    </g>
</svg>